<?xml version="1.0" standalone="no"?>
<!DOCTYPE svg PUBLIC "-//W3C//DTD SVG 20010904//EN"
 "http://www.w3.org/TR/2001/REC-SVG-20010904/DTD/svg10.dtd">
<svg version="1.0" xmlns="http://www.w3.org/2000/svg"
 width="689.000000pt" height="734.000000pt" viewBox="0 0 689.000000 734.000000"
 preserveAspectRatio="xMidYMid meet">

<g transform="translate(0.000000,734.000000) scale(0.100000,-0.100000)"
fill="#000000" stroke="none">
<path d="M0 3670 l0 -3670 3445 0 3445 0 0 3670 0 3670 -3445 0 -3445 0 0
-3670z m3767 2751 c422 -79 814 -244 1063 -450 121 -100 234 -210 299 -291
208 -260 327 -504 427 -872 4 -13 -16 -28 -87 -63 -50 -26 -97 -44 -104 -42
-7 3 -15 24 -18 47 -3 23 -8 45 -12 48 -13 13 -547 23 -687 13 -154 -11 -189
-22 -293 -96 -36 -26 -72 -45 -79 -42 -8 3 -22 32 -31 64 -9 32 -34 95 -56
140 -58 118 -142 195 -292 267 -158 76 -226 91 -422 91 -184 0 -232 -9 -355
-67 -149 -71 -265 -212 -316 -383 -27 -90 -25 -248 5 -345 48 -156 125 -270
260 -383 121 -101 365 -283 560 -416 300 -206 445 -315 532 -401 184 -183 260
-357 260 -595 -1 -273 -111 -497 -330 -673 -206 -165 -356 -222 -666 -252
-256 -25 -546 32 -787 156 -153 79 -305 245 -363 397 -10 26 -21 50 -25 52 -3
2 -35 -7 -71 -20 -97 -35 -205 -48 -404 -49 -190 -1 -271 9 -401 49 -41 13
-74 19 -74 14 0 -19 55 -181 91 -268 45 -107 101 -215 167 -316 182 -284 481
-547 777 -685 446 -209 996 -278 1463 -184 225 45 459 134 667 253 145 84 216
135 353 255 348 306 552 700 593 1149 20 214 -5 447 -66 634 -127 384 -457
755 -847 954 -64 32 -65 36 -43 119 8 30 15 70 15 88 0 36 4 38 40 18 379
-204 588 -375 799 -656 149 -197 281 -517 312 -755 18 -140 7 -464 -21 -600
-90 -451 -340 -858 -723 -1178 -419 -351 -1018 -556 -1557 -532 -294 12 -506
51 -800 146 -215 70 -445 192 -669 357 -253 186 -508 512 -630 806 -86 207
-149 484 -166 731 -3 50 -8 105 -11 123 l-5 34 42 -7 c23 -4 74 -10 113 -14
l71 -6 -3 -105 c-5 -165 16 -188 203 -226 99 -21 381 -29 485 -15 151 20 274
93 365 216 56 75 75 90 75 58 0 -10 7 -65 15 -123 20 -152 56 -251 130 -355
104 -146 268 -245 493 -296 199 -45 543 -22 726 49 160 63 315 199 380 335 60
124 79 213 71 341 -8 124 -23 182 -72 281 -56 110 -147 192 -462 410 -150 105
-322 224 -382 265 -307 213 -518 404 -597 538 -140 237 -167 527 -71 758 97
232 333 424 593 480 115 26 334 30 457 9 323 -54 579 -215 673 -423 11 -24 24
-41 30 -39 68 26 153 32 518 32 214 0 388 3 388 6 0 14 -52 145 -93 231 -121
258 -359 530 -601 686 -157 102 -415 219 -576 261 -454 118 -779 118 -1190 0
-363 -105 -752 -391 -932 -687 -109 -178 -186 -415 -208 -637 -31 -318 54
-640 232 -880 81 -110 301 -323 396 -385 45 -29 82 -59 82 -65 0 -16 -88 -205
-96 -205 -11 0 -302 259 -387 345 -143 144 -269 317 -323 443 -37 85 -76 213
-96 317 -42 210 -25 542 38 761 79 272 202 476 413 684 257 256 532 419 861
513 114 33 305 70 420 81 115 11 437 -3 547 -23z"/>
</g>
</svg>
